<?xml version="1.0" encoding="utf-8"?>
<!-- Generator: Adobe Illustrator 19.0.0, SVG Export Plug-In . SVG Version: 6.00 Build 0)  -->
<!DOCTYPE svg PUBLIC "-//W3C//DTD SVG 1.1//EN" "http://www.w3.org/Graphics/SVG/1.1/DTD/svg11.dtd">
<svg version="1.1" id="Layer_1" xmlns="http://www.w3.org/2000/svg" xmlns:xlink="http://www.w3.org/1999/xlink" x="0px" y="0px"
	 viewBox="0 0 196.4 29" enable-background="new 0 0 196.4 29" xml:space="preserve">
<circle fill="#FFDC00" cx="13.4" cy="13.4" r="7.6"/>
<polygon fill="#FF0000" points="26.7,4.5 22.2,0 17.8,4.4 13.4,0 13.4,13.4 26.7,13.4 22.3,8.9 "/>
<polygon fill="#0096E1" points="13.4,13.4 0,13.4 4.4,17.8 0,22.2 4.5,26.7 8.9,22.3 13.4,26.7 "/>
<path fill="#FF7D00" d="M20.9,13.4c0-1.9-0.7-3.9-2.2-5.3c-1.5-1.5-3.4-2.2-5.3-2.2v1.9v5.7H19l0,0H20.9z"/>
<path d="M5.8,13.4c0,1.9,0.7,3.9,2.2,5.3c1.5,1.5,3.4,2.2,5.3,2.2l0-1.9v-5.7H7.7l0,0H5.8z"/>
<g>
	<path fill="#0096E1" d="M151.2,5.2h6.3c4.6,0,5.7,2.7,5.7,5c0,2.2-1.2,5-5.7,5h-3.9V23h-2.4V5.2z M153.6,13h3.2
		c1.9,0,3.8-0.5,3.8-2.9c0-2.4-1.9-2.9-3.8-2.9h-3.2V13z"/>
	<path fill="#0096E1" d="M169.8,10.7c3.6,0,6.3,2.8,6.3,6.3c0,3.5-2.8,6.3-6.3,6.3c-3.6,0-6.4-2.8-6.4-6.3
		C163.4,13.5,166.2,10.7,169.8,10.7z M169.8,21.2c2.4,0,3.9-1.7,3.9-4.2c0-2.4-1.5-4.2-3.9-4.2c-2.4,0-3.9,1.7-3.9,4.2
		C165.8,19.4,167.4,21.2,169.8,21.2z"/>
	<path fill="#0096E1" d="M184.8,14c-0.5-0.7-1.3-1.2-2.4-1.2c-1.1,0-2,0.5-2,1.3c0,1.4,2,1.6,3.1,1.9c2,0.5,3.5,1.2,3.5,3.5
		c0,2.7-2.5,3.8-4.8,3.8c-2,0-3.4-0.5-4.6-2.1l1.7-1.4c0.7,0.7,1.6,1.4,2.9,1.4c1.2,0,2.4-0.5,2.4-1.5c0-1.4-1.9-1.6-2.9-1.8
		c-1.9-0.5-3.7-1.1-3.7-3.4c0-2.5,2.3-3.7,4.5-3.7c1.6,0,3.2,0.6,4.1,2L184.8,14z"/>
	<path fill="#0096E1" d="M196.3,13h-3.3v5.4c0,1.3,0,2.7,1.7,2.7c0.5,0,1.2-0.1,1.6-0.4v2.1c-0.5,0.3-1.6,0.4-2,0.4
		c-3.5,0-3.6-2.1-3.6-4.1V13h-2.6v-2h2.6V5.8h2.3V11h3.3V13z"/>
</g>
<g>
	<path d="M53.9,5.1h2.3v7.7h0.1c0.6-1.3,2.1-2.1,3.9-2.1c2.3,0,4.3,1.4,4.3,4.6V23h-2.3v-7.1c0-2.2-1.3-3.1-2.7-3.1
		c-1.9,0-3.3,1.2-3.3,4V23h-2.3V5.1z"/>
	<path d="M67.6,12.5c1.3-1.2,3.1-1.8,4.7-1.8c3.5,0,5,1.9,5,4v6.1c0,0.8,0,1.5,0.1,2.2h-2c-0.1-0.6-0.1-1.2-0.1-1.8h-0.1
		c-1,1.5-2.4,2.1-4.2,2.1c-2.2,0-4.1-1.3-4.1-3.6c0-3.1,2.9-4.1,6.6-4.1h1.7v-0.5c0-1.2-0.9-2.5-2.8-2.5c-1.7,0-2.6,0.7-3.4,1.4
		L67.6,12.5z M74,17.2c-2.1,0-4.8,0.4-4.8,2.3c0,1.4,1,1.9,2.6,1.9c2.5,0,3.4-1.9,3.4-3.5v-0.8H74z"/>
	<path d="M81,5.1h2.3V23H81V5.1z"/>
	<path d="M87.3,5.1h2.3V23h-2.3V5.1z"/>
	<path d="M95.1,17.9c0,2.1,1.9,3.5,4,3.5c1.4,0,2.4-0.7,3.3-1.8l1.7,1.3c-1.3,1.6-3,2.4-5.3,2.4c-3.8,0-6.1-2.7-6.1-6.3
		c0-3.6,2.6-6.3,6.2-6.3c4.2,0,5.8,3.2,5.8,6.3v0.8H95.1z M102.3,16c0-2-1.2-3.5-3.5-3.5c-2.2,0-3.7,1.9-3.7,3.5H102.3z"/>
	<path d="M107.3,11h2.3v1.8h0.1c0.6-1.3,2.1-2.1,3.9-2.1c2.3,0,4.3,1.4,4.3,4.6V23h-2.3v-7.1c0-2.2-1.3-3.1-2.7-3.1
		c-1.9,0-3.3,1.2-3.3,4V23h-2.3V11z"/>
	<path d="M132.6,22.9c0,3.6-2.6,6.1-6.5,6.1c-2.3,0-4.2-0.6-5.8-2.1l1.5-1.9c1.2,1.3,2.5,1.9,4.3,1.9c3.4,0,4.3-2.1,4.3-4.1V21h-0.1
		c-0.9,1.4-2.5,2.1-4.1,2.1c-3.5,0-6.1-2.6-6.1-6.1c0-3.5,2.4-6.3,6.1-6.3c1.6,0,3.3,0.7,4.2,2h0V11h2.3V22.9z M122.5,17
		c0,2.4,1.5,4,3.9,4c2.4,0,3.9-1.6,3.9-4c0-2.4-1.5-4.2-3.9-4.2C124,12.9,122.5,14.6,122.5,17z"/>
	<path d="M137.6,17.9c0,2.1,1.9,3.5,4,3.5c1.4,0,2.4-0.7,3.3-1.8l1.7,1.3c-1.3,1.6-3,2.4-5.3,2.4c-3.8,0-6.1-2.7-6.1-6.3
		c0-3.6,2.6-6.3,6.2-6.3c4.2,0,5.8,3.2,5.8,6.3v0.8H137.6z M144.8,16c0-2-1.2-3.5-3.5-3.5c-2.2,0-3.7,1.9-3.7,3.5H144.8z"/>
	<path d="M49.9,18.9c-1.3,1.4-3.2,2.3-5.2,2.3c-3.9,0-7.1-3.2-7.1-7.1c0-3.9,3.2-7.1,7.1-7.1c1.9,0,3.6,0.7,4.9,2l1.8-1.4
		c-1.7-1.7-4.1-2.8-6.7-2.8c-5.2,0-9.4,4.2-9.4,9.4c0,5.2,4.2,9.4,9.4,9.4c2.8,0,5.3-1.2,7.1-3.2L49.9,18.9z"/>
</g>
</svg>
