<svg xmlns="http://www.w3.org/2000/svg" width="38" height="24" fill="none">
  <path fill="#221E24" d="M28.578 0h-3.413l6.908 11.99L25.165 24h3.413l6.907-12.01L28.578 0Z"/>
  <path fill="#221E24" fill-rule="evenodd" d="M12.35 19.282h4.357c3.722 0 7.422-2.163 7.422-7.272 0-5.335-3.084-7.293-7.237-7.293H12.35v14.565ZM15.27 7.54h1.541c3.063 0 4.338 1.483 4.338 4.45 0 2.657-1.398 4.45-4.44 4.45h-1.44v-8.9Z" clip-rule="evenodd"/>
  <path fill="#221E24" d="M7.908 0h3.412L4.413 11.99 11.32 24H7.908L1 11.99 7.908 0Z"/>
</svg>
