<?xml version="1.0" encoding="UTF-8" standalone="no"?>
<svg width="41px" height="207px" viewBox="0 0 41 207" version="1.1" xmlns="http://www.w3.org/2000/svg" xmlns:xlink="http://www.w3.org/1999/xlink">
    <!-- Generator: Sketch 41.1 (35376) - http://www.bohemiancoding.com/sketch -->
    <title>social_links_logos</title>
    <desc>Created with Sketch.</desc>
    <defs></defs>
    <g id="Page-1" stroke="none" stroke-width="1" fill="none" fill-rule="evenodd">
        <g id="Group" transform="translate(-1.000000, 0.000000)" fill="#999794">
            <path d="M31.3571429,200.991071 L29.6964286,196.089286 C28.9107104,196.482145 27.9910767,196.678571 26.9375,196.678571 C26.2946396,196.696429 25.7410738,196.60268 25.2767857,196.397321 C24.8124977,196.191963 24.4687511,195.910716 24.2455357,195.553571 C24.0223203,195.196427 23.8660719,194.834823 23.7767857,194.46875 C23.6874996,194.102677 23.6428571,193.714288 23.6428571,193.303571 L23.6428571,182.642857 L30.5267857,182.642857 L30.5267857,177.446429 L23.6696429,177.446429 L23.6696429,168.714286 L18.6339286,168.714286 C18.4910707,168.714286 18.4107144,168.803571 18.3928571,168.982143 C18.303571,169.767861 18.1473225,170.544639 17.9241071,171.3125 C17.7008917,172.080361 17.3526809,172.928567 16.8794643,173.857143 C16.4062476,174.785719 15.7187545,175.633925 14.8169643,176.401786 C13.9151741,177.169647 12.8571489,177.776783 11.6428571,178.223214 L11.6428571,182.642857 L15.125,182.642857 L15.125,193.839286 C15.125,194.857148 15.3169624,195.883923 15.7008929,196.919643 C16.0848233,197.955362 16.6651747,198.946424 17.4419643,199.892857 C18.2187539,200.83929 19.2991002,201.602676 20.6830357,202.183036 C22.0669712,202.763396 23.6428483,203.035714 25.4107143,203 C26.6428633,202.982143 27.8616011,202.758931 29.0669643,202.330357 C30.2723275,201.901784 31.0357127,201.455359 31.3571429,200.991071 Z M42.0714286,173 L42.0714286,198.714286 C42.0714286,200.839296 41.3169718,202.656242 39.8080357,204.165179 C38.2990996,205.674115 36.4821535,206.428571 34.3571429,206.428571 L8.64285714,206.428571 C6.51784652,206.428571 4.7009004,205.674115 3.19196429,204.165179 C1.68302817,202.656242 0.928571429,200.839296 0.928571429,198.714286 L0.928571429,173 C0.928571429,170.874989 1.68302817,169.058043 3.19196429,167.549107 C4.7009004,166.040171 6.51784652,165.285714 8.64285714,165.285714 L34.3571429,165.285714 C36.4821535,165.285714 38.2990996,166.040171 39.8080357,167.549107 C41.3169718,169.058043 42.0714286,170.874989 42.0714286,173 Z" id="logos"></path>
            <path d="M25.5446429,141.758929 L25.5446429,137.553571 C25.5446429,136.66071 25.2857169,136.214286 24.7678571,136.214286 C24.4642842,136.214286 24.1696443,136.357141 23.8839286,136.642857 L23.8839286,142.642857 C24.1696443,142.928573 24.4642842,143.071429 24.7678571,143.071429 C25.2857169,143.071429 25.5446429,142.633933 25.5446429,141.758929 Z M30.4732143,138.491071 L32.2410714,138.491071 L32.2410714,137.580357 C32.2410714,136.669638 31.9464315,136.214286 31.3571429,136.214286 C30.7678542,136.214286 30.4732143,136.669638 30.4732143,137.580357 L30.4732143,138.491071 Z M15.1785714,131.366071 L15.1785714,133.241071 L13.0357143,133.241071 L13.0357143,144.571429 L11.0535714,144.571429 L11.0535714,133.241071 L8.96428571,133.241071 L8.96428571,131.366071 L15.1785714,131.366071 Z M20.5625,134.741071 L20.5625,144.571429 L18.7678571,144.571429 L18.7678571,143.5 C18.0714251,144.303575 17.3928604,144.705357 16.7321429,144.705357 C16.1428542,144.705357 15.7678579,144.45536 15.6071429,143.955357 C15.4999995,143.669641 15.4464286,143.187503 15.4464286,142.508929 L15.4464286,134.741071 L17.2142857,134.741071 L17.2142857,141.973214 C17.2142857,142.401788 17.2232142,142.633928 17.2410714,142.669643 C17.2589287,142.937501 17.3928559,143.071429 17.6428571,143.071429 C18.0000018,143.071429 18.374998,142.794646 18.7678571,142.241071 L18.7678571,134.741071 L20.5625,134.741071 Z M27.3125,137.714286 L27.3125,141.625 C27.3125,142.553576 27.2500006,143.205355 27.125,143.580357 C26.9107132,144.330361 26.4375037,144.705357 25.7053571,144.705357 C25.080354,144.705357 24.4732172,144.339289 23.8839286,143.607143 L23.8839286,144.571429 L22.0892857,144.571429 L22.0892857,131.366071 L23.8839286,131.366071 L23.8839286,135.678571 C24.45536,134.964282 25.0624968,134.607143 25.7053571,134.607143 C26.4375037,134.607143 26.9107132,134.982139 27.125,135.732143 C27.2500006,136.107145 27.3125,136.767852 27.3125,137.714286 Z M34.0357143,141.169643 L34.0357143,141.410714 C34.0357143,141.928574 34.0178573,142.312499 33.9821429,142.5625 C33.9285712,142.955359 33.7946439,143.312498 33.5803571,143.633929 C33.0982119,144.348218 32.3839333,144.705357 31.4375,144.705357 C30.5089239,144.705357 29.7857169,144.366075 29.2678571,143.6875 C28.8928553,143.205355 28.7053571,142.437505 28.7053571,141.383929 L28.7053571,137.928571 C28.7053571,136.874995 28.8839268,136.107145 29.2410714,135.625 C29.7589312,134.946425 30.4732097,134.607143 31.3839286,134.607143 C32.2946474,134.607143 32.991069,134.946425 33.4732143,135.625 C33.8482162,136.125002 34.0357143,136.892852 34.0357143,137.928571 L34.0357143,139.964286 L30.4732143,139.964286 L30.4732143,141.705357 C30.4732143,142.616076 30.7767827,143.071429 31.3839286,143.071429 C31.8125021,143.071429 32.0803566,142.839288 32.1875,142.375 C32.1875,142.357143 32.1919642,142.294643 32.2008929,142.1875 C32.2098215,142.080357 32.2142857,141.933037 32.2142857,141.745536 L32.2142857,141.169643 L34.0357143,141.169643 Z M21.9553571,119.098214 L21.9553571,123.276786 C21.9553571,124.187505 21.6696457,124.642857 21.0982143,124.642857 C20.5267829,124.642857 20.2410714,124.187505 20.2410714,123.276786 L20.2410714,119.098214 C20.2410714,118.169638 20.5267829,117.705357 21.0982143,117.705357 C21.6696457,117.705357 21.9553571,118.169638 21.9553571,119.098214 Z M36.2321429,138.196429 C36.2321429,135.035698 36.0625017,132.714293 35.7232143,131.232143 C35.544642,130.446425 35.1607172,129.790181 34.5714286,129.263393 C33.9821399,128.736605 33.3035753,128.428572 32.5357143,128.339286 C30.1071307,128.071427 26.4285961,127.9375 21.5,127.9375 C16.5892612,127.9375 12.919655,128.071427 10.4910714,128.339286 C9.70535321,128.428572 9.02232433,128.736605 8.44196429,129.263393 C7.86160424,129.790181 7.48214375,130.446425 7.30357143,131.232143 C6.94642679,132.785722 6.76785714,135.107127 6.76785714,138.196429 C6.76785714,141.339301 6.94642679,143.660707 7.30357143,145.160714 C7.48214375,145.928575 7.86160424,146.580354 8.44196429,147.116071 C9.02232433,147.651788 9.69642473,147.964285 10.4642857,148.053571 C12.9107265,148.32143 16.5892612,148.455357 21.5,148.455357 C26.4107388,148.455357 30.0892735,148.32143 32.5357143,148.053571 C33.3035753,147.964285 33.9776757,147.651788 34.5580357,147.116071 C35.1383958,146.580354 35.5178563,145.928575 35.6964286,145.160714 C36.0535732,143.660707 36.2321429,141.339301 36.2321429,138.196429 Z M16.0089286,120.758929 L18.4196429,112.830357 L16.4107143,112.830357 L15.0446429,118.053571 L13.625,112.830357 L11.5357143,112.830357 L12.1785714,114.678571 C12.4642871,115.500004 12.6696422,116.116069 12.7946429,116.526786 C13.419646,118.366081 13.8303562,119.776781 14.0267857,120.758929 L14.0267857,126.142857 L16.0089286,126.142857 L16.0089286,120.758929 Z M23.75,122.928571 L23.75,119.446429 C23.75,118.410709 23.5625019,117.633931 23.1875,117.116071 C22.6696403,116.437497 21.9732187,116.098214 21.0982143,116.098214 C20.1874954,116.098214 19.4910738,116.437497 19.0089286,117.116071 C18.6339267,117.633931 18.4464286,118.410709 18.4464286,119.446429 L18.4464286,122.928571 C18.4464286,123.964291 18.6339267,124.741069 19.0089286,125.258929 C19.4910738,125.937503 20.1874954,126.276786 21.0982143,126.276786 C21.9732187,126.276786 22.6696403,125.937503 23.1875,125.258929 C23.5625019,124.776783 23.75,124.000005 23.75,122.928571 Z M28.5982143,126.142857 L30.3928571,126.142857 L30.3928571,116.232143 L28.5982143,116.232143 L28.5982143,123.8125 C28.2053552,124.366074 27.8303589,124.642857 27.4732143,124.642857 C27.2053558,124.642857 27.0625001,124.500001 27.0446429,124.214286 C27.0267856,124.178571 27.0178571,123.946431 27.0178571,123.517857 L27.0178571,116.232143 L25.2232143,116.232143 L25.2232143,124.080357 C25.2232143,124.741075 25.2767852,125.232141 25.3839286,125.553571 C25.5803581,126.035717 25.9642829,126.276786 26.5357143,126.276786 C27.1785746,126.276786 27.8660678,125.875004 28.5982143,125.071429 L28.5982143,126.142857 Z M42.0714286,118 L42.0714286,143.714286 C42.0714286,145.839296 41.3169718,147.656242 39.8080357,149.165179 C38.2990996,150.674115 36.4821535,151.428571 34.3571429,151.428571 L8.64285714,151.428571 C6.51784652,151.428571 4.7009004,150.674115 3.19196429,149.165179 C1.68302817,147.656242 0.928571429,145.839296 0.928571429,143.714286 L0.928571429,118 C0.928571429,115.874989 1.68302817,114.058043 3.19196429,112.549107 C4.7009004,111.040171 6.51784652,110.285714 8.64285714,110.285714 L34.3571429,110.285714 C36.4821535,110.285714 38.2990996,111.040171 39.8080357,112.549107 C41.3169718,114.058043 42.0714286,115.874989 42.0714286,118 Z" id="logos"></path>
            <path d="M34.3571429,55.2857143 C36.4821535,55.2857143 38.2990996,56.040171 39.8080357,57.5491071 C41.3169718,59.0580433 42.0714286,60.8749894 42.0714286,63 L42.0714286,88.7142857 C42.0714286,90.8392963 41.3169718,92.6562425 39.8080357,94.1651786 C38.2990996,95.6741147 36.4821535,96.4285714 34.3571429,96.4285714 L29.3214286,96.4285714 L29.3214286,80.4910714 L34.6517857,80.4910714 L35.4553571,74.2767857 L29.3214286,74.2767857 L29.3214286,70.3125 C29.3214286,69.312495 29.5312479,68.5625025 29.9508929,68.0625 C30.3705378,67.5624975 31.1874939,67.3125 32.4017857,67.3125 L35.6696429,67.2857143 L35.6696429,61.7410714 C34.5446372,61.5803563 32.9553674,61.5 30.9017857,61.5 C28.4732021,61.5 26.5312573,62.2142786 25.0758929,63.6428571 C23.6205284,65.0714357 22.8928571,67.0892727 22.8928571,69.6964286 L22.8928571,74.2767857 L17.5357143,74.2767857 L17.5357143,80.4910714 L22.8928571,80.4910714 L22.8928571,96.4285714 L8.64285714,96.4285714 C6.51784652,96.4285714 4.7009004,95.6741147 3.19196429,94.1651786 C1.68302817,92.6562425 0.928571429,90.8392963 0.928571429,88.7142857 L0.928571429,63 C0.928571429,60.8749894 1.68302817,59.0580433 3.19196429,57.5491071 C4.7009004,56.040171 6.51784652,55.2857143 8.64285714,55.2857143 L34.3571429,55.2857143 Z" id="logos"></path>
            <path d="M35.2142857,13.1964286 C34.2142807,13.6428594 33.1339344,13.9464278 31.9732143,14.1071429 C33.1875061,13.3928536 34.0178549,12.3482212 34.4642857,10.9732143 C33.3035656,11.6517891 32.107149,12.1071417 30.875,12.3392857 C29.7857088,11.1607084 28.4196511,10.5714286 26.7767857,10.5714286 C25.2232065,10.5714286 23.8973269,11.1205302 22.7991071,12.21875 C21.7008874,13.3169698 21.1517857,14.6428494 21.1517857,16.1964286 C21.1517857,16.7142883 21.1964281,17.1428554 21.2857143,17.4821429 C18.9821313,17.3571422 16.8214387,16.7767909 14.8035714,15.7410714 C12.7857042,14.705352 11.0714356,13.3214372 9.66071429,11.5892857 C9.14285455,12.4821473 8.88392857,13.4285664 8.88392857,14.4285714 C8.88392857,16.4642959 9.69642045,18.0267803 11.3214286,19.1160714 C10.4821387,19.0982142 9.58929045,18.8660737 8.64285714,18.4196429 L8.64285714,18.4732143 C8.64285714,19.8125067 9.08928125,21.0044591 9.98214286,22.0491071 C10.8750045,23.0937552 11.9732078,23.7410702 13.2767857,23.9910714 C12.758926,24.1339293 12.3035734,24.2053571 11.9107143,24.2053571 C11.6785703,24.2053571 11.3303595,24.1696432 10.8660714,24.0982143 C11.2410733,25.2232199 11.9062452,26.1517821 12.8616071,26.8839286 C13.8169691,27.6160751 14.9017796,27.9910713 16.1160714,28.0089286 C14.0446325,29.6160795 11.7142987,30.4196429 9.125,30.4196429 C8.66071196,30.4196429 8.21428786,30.3928574 7.78571429,30.3392857 C10.4285846,32.0178655 13.3035559,32.8571429 16.4107143,32.8571429 C18.4107243,32.8571429 20.2857055,32.5401817 22.0357143,31.90625 C23.785723,31.2723183 25.285708,30.4241125 26.5357143,29.3616071 C27.7857205,28.2991018 28.8616026,27.0758998 29.7633929,25.6919643 C30.6651831,24.3080288 31.3348192,22.8616147 31.7723214,21.3526786 C32.2098236,19.8437425 32.4285714,18.3392932 32.4285714,16.8392857 C32.4285714,16.5178555 32.4196429,16.2767865 32.4017857,16.1160714 C33.5267913,15.312496 34.464282,14.3392914 35.2142857,13.1964286 Z M42.0714286,8 L42.0714286,33.7142857 C42.0714286,35.8392963 41.3169718,37.6562425 39.8080357,39.1651786 C38.2990996,40.6741147 36.4821535,41.4285714 34.3571429,41.4285714 L8.64285714,41.4285714 C6.51784652,41.4285714 4.7009004,40.6741147 3.19196429,39.1651786 C1.68302817,37.6562425 0.928571429,35.8392963 0.928571429,33.7142857 L0.928571429,8 C0.928571429,5.87498937 1.68302817,4.05804326 3.19196429,2.54910714 C4.7009004,1.04017103 6.51784652,0.285714286 8.64285714,0.285714286 L34.3571429,0.285714286 C36.4821535,0.285714286 38.2990996,1.04017103 39.8080357,2.54910714 C41.3169718,4.05804326 42.0714286,5.87498937 42.0714286,8 Z" id="logos"></path>
        </g>
    </g>
</svg>